<svg width="14" height="14" viewBox="0 0 14 14" fill="none" xmlns="http://www.w3.org/2000/svg">
<path d="M0 14L1.37037 8.48145L9.77779 0.0740356L13.9259 4.22219L5.51853 12.6296L0 14ZM2.33334 8.99997L1.44444 12.5555L5.00001 11.6666L12.4815 4.18515L9.81483 1.51848L2.33334 8.99997Z" fill="#134563"/>
<path d="M4.62964 12.2963C4.25927 10.8518 3.14815 9.74072 1.7037 9.37035L1.96297 8.33331C3.77779 8.77776 5.18519 10.1852 5.62964 12L4.62964 12.2963Z" fill="#134563"/>
<path d="M4.51851 10.2593L3.77777 9.48152L11.1482 2.11115L11.8889 2.85189L4.51851 10.2593Z" fill="#134563"/>
<path d="M0.740723 13.2593L2.37035 12.8519C2.2222 12.2593 1.74072 11.7778 1.14813 11.6296L0.740723 13.2593Z" fill="#134563"/>
</svg>
